<svg viewBox="0 0 27.347 24.844" height="24.844" width="27.347" xmlns:xlink="http://www.w3.org/1999/xlink" xmlns="http://www.w3.org/2000/svg" id="check-green">
  <defs>
    <clipPath id="clip-path">
      <rect fill="#70afa5" height="24.844" width="27.347" data-name="Rectangle 2270" id="Rectangle_2270"></rect>
    </clipPath>
  </defs>
  <g clip-path="url(#clip-path)" data-name="Group 147270" id="Group_147270">
    <path fill="#70afa5" transform="translate(0 0)" d="M26.953,1.965C19.278,8.476,14.472,17.783,11.944,23.676a1.93,1.93,0,0,1-3.433.225,34.34,34.34,0,0,0-7.962-9.26,1.555,1.555,0,0,1-.071-2.308h0a1.554,1.554,0,0,1,1.8-.257,27.408,27.408,0,0,1,7.754,5.977S13.721,8.989,25.568.22A1.116,1.116,0,0,1,27,.307h0a1.115,1.115,0,0,1-.047,1.658" data-name="Path 30888" id="Path_30888"></path>
  </g>
</svg>
